<svg xmlns="http://www.w3.org/2000/svg" viewBox="0 0 400 400" width="400" height="400">
  <defs>
    <linearGradient id="earthGrad" x1="0%" y1="0%" x2="0%" y2="100%">
      <stop offset="0%" style="stop-color:#8B6914;stop-opacity:1" />
      <stop offset="100%" style="stop-color:#6B4F12;stop-opacity:1" />
    </linearGradient>
    <linearGradient id="greenGrad" x1="0%" y1="0%" x2="0%" y2="100%">
      <stop offset="0%" style="stop-color:#4a7c2e;stop-opacity:1" />
      <stop offset="100%" style="stop-color:#2d5a1a;stop-opacity:1" />
    </linearGradient>
  </defs>
  <!-- Outer circle (seal border) -->
  <circle cx="200" cy="200" r="185" fill="none" stroke="url(#earthGrad)" stroke-width="6"/>
  <circle cx="200" cy="200" r="175" fill="none" stroke="url(#earthGrad)" stroke-width="2"/>
  <!-- Inner circle -->
  <circle cx="200" cy="200" r="165" fill="#faf6ee"/>
  <!-- Top arc text: COLLINS -->
  <path id="topArc" d="M 80,200 A 120,120 0 0,1 320,200" fill="none"/>
  <text font-family="'Georgia', 'Times New Roman', serif" font-size="36" font-weight="bold" fill="#6B4F12" letter-spacing="8">
    <textPath href="#topArc" startOffset="50%" text-anchor="middle">COLLINS</textPath>
  </text>
  <!-- Bottom arc text: FARMS -->
  <path id="bottomArc" d="M 90,230 A 120,120 0 0,0 310,230" fill="none"/>
  <text font-family="'Georgia', 'Times New Roman', serif" font-size="36" font-weight="bold" fill="#6B4F12" letter-spacing="8">
    <textPath href="#bottomArc" startOffset="50%" text-anchor="middle">FARMS</textPath>
  </text>
  <!-- Central farm illustration: barn -->
  <rect x="170" y="175" width="60" height="40" fill="#8B4513" rx="2"/>
  <polygon points="165,175 200,150 235,175" fill="#A0522D"/>
  <!-- Barn door -->
  <rect x="190" y="195" width="20" height="20" fill="#5a2d0c" rx="2"/>
  <!-- Silo -->
  <rect x="240" y="165" width="15" height="50" fill="#9a8a6a" rx="2"/>
  <ellipse cx="247.5" cy="165" rx="7.5" ry="4" fill="#8a7a5a"/>
  <!-- Ground line -->
  <line x1="140" y1="215" x2="270" y2="215" stroke="#4a7c2e" stroke-width="2"/>
  <!-- Small plant/crop symbols -->
  <g fill="url(#greenGrad)">
    <path d="M 145,215 L 145,208 C 145,208 142,205 145,203 C 148,205 145,208 145,208"/>
    <path d="M 155,215 L 155,208 C 155,208 152,205 155,203 C 158,205 155,208 155,208"/>
    <path d="M 255,215 L 255,208 C 255,208 252,205 255,203 C 258,205 255,208 255,208"/>
    <path d="M 265,215 L 265,208 C 265,208 262,205 265,203 C 268,205 265,208 265,208"/>
  </g>
  <!-- Established text -->
  <text x="200" y="260" font-family="'Arial', 'Helvetica', sans-serif" font-size="11" fill="#8B6914" text-anchor="middle" letter-spacing="2">EST.</text>
  <!-- Decorative wheat/laurel elements -->
  <g stroke="#8B6914" stroke-width="1.5" fill="none" opacity="0.6">
    <!-- Left wheat -->
    <path d="M 120,270 Q 130,240 140,220"/>
    <path d="M 115,260 Q 125,255 130,245"/>
    <path d="M 118,250 Q 128,245 133,235"/>
    <!-- Right wheat -->
    <path d="M 280,270 Q 270,240 260,220"/>
    <path d="M 285,260 Q 275,255 270,245"/>
    <path d="M 282,250 Q 272,245 267,235"/>
  </g>
</svg>